<?xml version="1.0" encoding="utf-8"?>
<!-- Generator: Adobe Illustrator 16.0.0, SVG Export Plug-In . SVG Version: 6.00 Build 0)  -->
<!DOCTYPE svg PUBLIC "-//W3C//DTD SVG 1.1//EN" "http://www.w3.org/Graphics/SVG/1.1/DTD/svg11.dtd">
<svg version="1.1" id="Calque_1" xmlns="http://www.w3.org/2000/svg" xmlns:xlink="http://www.w3.org/1999/xlink" x="0px" y="0px"
	 width="432px" height="432px" viewBox="0 0 432 432" enable-background="new 0 0 432 432" xml:space="preserve">
<g>
	<path d="M232.748,248.838c-0.357,0.269-0.387,0.69-0.522,1.055c-2.641,7.118-5.375,14.199-8.251,21.227
		c-1.347,3.294-2.708,6.58-4.412,9.707c-1.687,3.096-3.551,6.074-6.086,8.57c-0.863,0.85-1.824,1.551-3.026,1.863
		c-1.751,0.455-3.141-0.222-4.331-1.42c-1.049-1.057-1.854-2.305-2.565-3.604c-2.095-3.831-3.784-7.828-5.104-11.999
		c-0.907-2.865-1.661-5.764-2.228-8.702c-0.589-3.055-1.034-6.135-1.171-9.263c-0.121-2.75-0.403-5.494-0.439-8.251
		c-0.004-0.315-0.065-0.632-0.283-1.009c-0.706,1.614-1.133,3.232-1.667,4.811c-2.913,8.591-5.957,17.135-9.003,25.679
		c-1.396,3.914-2.736,7.849-4.159,11.752c-0.697,1.912-1.443,3.81-2.573,5.531c-0.652,0.992-1.432,1.823-2.497,2.355
		c-1.035,0.517-2.076,0.481-3.11-0.038c-1.273-0.639-2.126-1.682-2.756-2.91c-1.412-2.754-2.34-5.687-3.104-8.671
		c-1.265-4.937-1.961-9.962-2.05-15.052c-0.12-6.869,0.053-13.738,0.233-20.605c0.064-2.477,0.058-4.953,0.106-7.43
		c0.075-3.84-0.046-7.669-0.544-11.48c-0.208-1.586-0.49-3.153-1.099-4.65c-0.75-1.849-1.461-2.324-3.635-2.078
		c-2.283,0.259-4.429,1.053-6.502,2.009c-2.721,1.255-5.41,2.579-8.116,3.866c-1.158,0.55-2.351,1.039-3.603,1.293
		c-0.73,0.148-0.846,0.511-0.871,1.143c-0.071,1.797-0.18,3.591-0.345,5.384c-0.49,5.309-1.445,10.53-2.783,15.685
		c-1.488,5.735-3.36,11.34-5.862,16.719c-1.671,3.596-3.491,7.107-6.073,10.159c-0.963,1.138-2.039,2.149-3.403,2.797
		c-2.096,0.995-4.105,0.819-6.013-0.499c-1.963-1.355-3.275-3.261-4.392-5.312c-1.936-3.556-3.43-7.303-4.708-11.137
		c-1.302-3.906-2.367-7.876-3.178-11.914c-0.802-3.998-1.455-8.015-1.796-12.083c-0.428-5.098-0.682-10.201-0.815-15.316
		c-0.108-4.155-0.127-8.31-0.192-12.464c-0.066-4.233,0.048-8.464-0.05-12.694c-0.006-0.268-0.052-0.533-0.087-0.877
		c-0.761,0.153-1.344,0.502-1.944,0.778c-6.898,3.174-13.107,7.333-18.283,12.938c-2.179,2.358-4.12,4.894-5.418,7.863
		c-0.256,0.585-0.486,1.174-0.581,1.82c-0.108,0.742-0.611,1.146-1.189,1.061c-0.641-0.094-1-0.656-0.888-1.454
		c0.214-1.527,0.805-2.922,1.554-4.255c2.44-4.346,5.741-7.967,9.493-11.194c4.795-4.126,10.134-7.393,15.969-9.821
		c1.07-0.445,1.496-0.964,1.487-2.162c-0.025-3.155,0.088-6.312,0.202-9.466c0.167-4.627,0.386-9.253,0.771-13.867
		c0.107-1.283,0.456-2.515,0.925-3.711c0.438-1.115,1.262-1.759,2.451-1.811c1.196-0.053,2.055,0.553,2.586,1.614
		c0.674,1.344,0.982,2.774,1.052,4.275c0.066,1.438,0.108,2.875,0.067,4.314c-0.058,2.073,0.025,4.146-0.045,6.223
		c-0.119,3.514-0.131,7.03-0.182,10.547c-0.002,0.151,0.057,0.305,0.102,0.528c1.653-0.434,3.266-0.867,4.884-1.277
		c6.333-1.604,12.769-2.528,19.283-2.979c4.555-0.315,9.112-0.331,13.67-0.193c5.075,0.153,10.142,0.5,15.192,1.029
		c4.888,0.513,9.773,1.055,14.658,1.6c4.527,0.505,9.05,1.053,13.58,1.537c3.219,0.345,6.444,0.615,9.676,0.826
		c5.432,0.356,10.868,0.398,16.304,0.187c5.642-0.22,11.232-0.894,16.748-2.128c0.155-0.035,0.31-0.078,0.464-0.119
		c1.179-0.311,1.147-0.315,1.334-1.465c0.771-4.733,1.74-9.419,3.098-14.029c0.69-2.348,1.548-4.623,2.515-6.853
		c1.953-4.505,4.648-8.472,8.824-11.243c1.237-0.82,2.56-1.438,4.079-1.622c2.696-0.327,4.885,0.579,6.584,2.631
		c2.217,2.679,2.86,5.849,2.584,9.227c-0.343,4.2-2.113,7.841-4.62,11.148c-3.783,4.989-8.683,8.565-14.352,11.12
		c-0.794,0.357-1.095,0.81-1.205,1.673c-0.735,5.792-1.148,11.604-1.412,17.436c-0.185,4.078-0.183,8.156-0.108,12.229
		c0.061,3.339,0.059,6.683,0.228,10.02c0.212,4.188,0.467,8.374,0.762,12.558c0.193,2.747,0.572,5.481,0.656,8.239
		c0.013,0.433,0.108,0.845,0.362,1.362c0.571-2.094,1.054-4.068,1.689-6.002c2.004-6.102,4.664-11.9,7.928-17.424
		c2.182-3.691,4.629-7.192,7.616-10.29c1.939-2.012,4.108-3.68,6.81-4.543c2.977-0.952,5.78-0.361,8.437,1.074
		c3.115,1.683,5.378,4.277,7.116,7.287c1.737,3.009,3.208,6.159,4.232,9.503c1.373,4.478,2.408,9.027,2.961,13.679
		c0.142,1.188,0.135,2.394,0.237,3.588c0.071,0.837,0.147,0.878,0.962,0.761c4.035-0.582,8.101-0.89,12.146-1.374
		c1.261-0.151,1.227-0.146,1.368-1.437c0.455-4.132,1.101-8.226,2.091-12.273c0.781-3.192,1.738-6.313,3.002-9.343
		c1.17-2.807,2.529-5.514,4.355-7.961c1.251-1.678,2.706-3.158,4.46-4.313c3.473-2.284,7.192-2.809,11.075-1.255
		c2.395,0.957,4.054,2.792,5.234,5.062c1.823,3.502,1.963,7.187,1.186,10.973c-1.368,6.663-5.177,11.666-10.593,15.573
		c-3.638,2.624-7.663,4.436-11.949,5.707c-1.126,0.334-1.118,0.353-1.212,1.522c-0.428,5.348,0.171,10.608,1.36,15.817
		c1.027,4.497,2.556,8.824,4.594,12.955c1.259,2.55,2.806,4.921,4.908,6.897c2.843,2.674,6.133,4.006,10.056,3.441
		c2.534-0.365,4.647-1.666,6.572-3.269c4.597-3.827,7.902-8.646,10.631-13.911c3.141-6.06,5.387-12.459,7.316-18.982
		c0.715-2.414,1.443-4.823,2.023-7.272c0.257-1.086,0.533-2.174-0.058-3.271c-0.256-0.475-0.107-0.947,0.403-1.222
		c0.478-0.256,0.863-0.037,1.164,0.319c0.826,0.98,1.032,2.131,0.873,3.375c-0.291,2.267-0.877,4.467-1.507,6.655
		c-1.69,5.874-3.388,11.751-5.585,17.458c-2.23,5.793-5.513,11.001-9.438,15.786c-2.354,2.869-5.215,5.192-8.598,6.772
		c-3.737,1.745-7.568,1.95-11.55,0.722c-3.644-1.125-6.504-3.355-9.144-5.943c-3.227-3.162-5.772-6.796-7.644-10.937
		c-1.995-4.413-3.171-9.021-3.814-13.794c-0.423-3.138-0.625-6.276-0.469-9.445c0.093-1.899,0.021-1.871-1.81-1.671
		c-2.185,0.239-4.377,0.402-6.563,0.625c-1.59,0.162-3.176,0.353-4.761,0.557c-0.952,0.124-0.949,0.147-0.966,1.13
		c-0.069,4.051-0.484,8.071-1.531,11.981c-1.078,4.027-2.646,7.882-4.98,11.367c-2.495,3.728-5.573,6.8-9.953,8.268
		c-2.525,0.846-5.039,0.897-7.426-0.452c-1.975-1.116-3.186-2.889-3.921-4.981c-1.218-3.463-1.013-6.93,0.188-10.347
		c2.112-6.017,6.108-10.505,11.403-13.928c2.364-1.528,4.897-2.691,7.553-3.609c0.893-0.308,0.858-0.32,0.821-1.278
		c-0.154-3.966-0.717-7.881-1.585-11.743c-0.762-3.392-1.862-6.688-3.189-9.905c-1.227-2.974-2.822-5.728-4.806-8.255
		c-0.695-0.886-1.525-1.655-2.54-2.148c-1.681-0.817-3.347-0.58-4.944,0.286c-2.364,1.282-4.21,3.166-5.889,5.216
		c-3.746,4.577-6.662,9.66-9.111,15.029c-1.912,4.192-3.457,8.51-4.527,12.991c-1.129,4.721-1.662,9.521-1.905,14.362
		c-0.141,2.794,0.034,5.586-0.055,8.378c-0.007,0.2,0.01,0.401-0.01,0.6c-0.108,1.148-0.8,1.988-1.762,2.149
		c-0.986,0.165-1.946-0.356-2.404-1.395c-0.306-0.691-0.563-1.414-0.752-2.146c-1.675-6.499-3.33-12.999-3.71-19.747
		c-0.153-2.71-0.476-5.41-0.728-8.113C232.946,249.613,233,249.2,232.748,248.838z M233.02,195.821
		c-0.418,0.08-0.652,0.116-0.883,0.171c-5.615,1.357-11.332,2.012-17.083,2.333c-6.873,0.383-13.742,0.206-20.608-0.334
		c-5.938-0.468-11.856-1.116-17.766-1.837c-8.85-1.08-17.698-2.14-26.606-2.63c-9.688-0.533-19.338-0.341-28.932,1.267
		c-4.261,0.714-8.462,1.674-12.608,2.886c-0.596,0.174-1.01,0.411-0.965,1.132c0.155,2.478-0.026,4.956,0.003,7.434
		c0.047,3.995-0.036,7.991,0.11,11.987c0.112,3.075,0.066,6.156,0.188,9.231c0.168,4.271,0.295,8.543,0.57,12.81
		c0.269,4.186,0.455,8.376,0.767,12.56c0.411,5.502,0.988,10.979,2.155,16.381c0.567,2.625,1.304,5.195,2.463,7.626
		c0.586,1.23,1.264,2.412,2.231,3.392c1.297,1.314,2.735,1.576,4.246,0.801c0.719-0.369,1.335-0.875,1.899-1.448
		c1.99-2.021,3.406-4.438,4.673-6.936c3.195-6.301,5.48-12.942,7.23-19.773c1.672-6.521,2.81-13.129,3.077-19.869
		c0.04-1.01,0.044-1.018-0.989-1.1c-2.545-0.202-4.728-1.221-6.454-3.075c-3.631-3.901-5.396-8.538-5.142-13.88
		c0.089-1.857,0.582-3.642,1.711-5.169c1.843-2.493,4.5-2.772,6.858-0.756c1.331,1.139,2.287,2.553,3.028,4.125
		c1.887,4.004,2.667,8.272,3.025,12.641c0.098,1.188,0.161,2.379,0.242,3.607c0.232-0.016,0.392-0.002,0.536-0.042
		c0.461-0.129,0.921-0.264,1.373-0.42c3.109-1.079,5.984-2.659,8.887-4.177c2.762-1.442,5.425-3.071,8.277-4.341
		c1.542-0.687,3.101-1.25,4.853-0.976c2.524,0.396,4.125,1.978,5.315,4.073c1.243,2.188,1.843,4.602,2.177,7.063
		c0.441,3.245,0.623,6.507,0.653,9.793c0.036,3.837,0.035,7.67-0.056,11.505c-0.067,2.837-0.061,5.679-0.216,8.511
		c-0.16,2.916-0.029,5.83-0.013,8.74c0.011,1.912,0.096,3.834,0.104,5.749c0.023,4.838,0.049,9.675,0.343,14.505
		c0.083,1.354,0.337,2.695,0.84,3.971c0.415,1.052,0.707,1.102,1.496,0.31c0.867-0.87,1.375-1.965,1.878-3.048
		c1.635-3.517,2.969-7.158,4.345-10.779c2.243-5.902,4.295-11.874,6.397-17.827c2.581-7.309,5.079-14.646,7.491-22.012
		c0.2-0.61,0.296-1.233,0.302-1.884c0.048-5.275,0.051-10.552,0.442-15.816c0.143-1.921,0.438-3.816,1.274-5.576
		c0.478-1.004,1.265-1.708,2.417-1.693c1.142,0.015,1.916,0.706,2.401,1.719c0.086,0.18,0.177,0.361,0.231,0.552
		c0.283,0.999,0.554,2.006,0.625,3.046c0.195,2.832,0.274,5.668,0.282,8.507c0.01,3.795-0.037,7.593,0.09,11.385
		c0.158,4.711,0.141,9.428,0.56,14.131c0.343,3.856,0.495,7.729,0.834,11.587c0.409,4.653,0.835,9.307,1.658,13.914
		c0.388,2.172,0.862,4.311,1.727,6.348c0.299,0.705,0.677,1.361,1.2,1.924c0.777,0.835,1.35,0.926,2.33,0.341
		c0.657-0.393,1.203-0.926,1.721-1.484c1.392-1.502,2.542-3.182,3.613-4.921c3.138-5.093,5.442-10.582,7.636-16.12
		c2.897-7.318,5.64-14.695,8.346-22.087c0.442-1.21,0.597-2.385,0.481-3.633c-0.254-2.745-0.214-5.504-0.392-8.255
		c-0.185-2.867-0.108-5.75-0.212-8.624c-0.139-3.839,0.067-7.671,0.134-11.506c0.062-3.519,0.334-7.026,0.642-10.531
		C232.642,199.537,232.831,197.76,233.02,195.821z M311.141,250.508c0.185,0,0.302,0.012,0.416-0.004
		c0.158-0.021,0.316-0.05,0.469-0.098c5.466-1.703,10.418-4.307,14.418-8.476c3.377-3.52,5.454-7.66,5.588-12.636
		c0.067-2.49-0.568-4.751-2.225-6.659c-1.602-1.847-3.636-2.356-5.834-1.432c-1.766,0.742-3.208,1.926-4.388,3.431
		c-2.681,3.42-4.305,7.368-5.584,11.459c-1.157,3.701-2.009,7.485-2.549,11.329C311.31,248.435,311.101,249.451,311.141,250.508z
		 M280.775,258.271c-0.286-0.161-0.502-0.009-0.726,0.053c-1.861,0.515-3.589,1.356-5.257,2.297
		c-4.699,2.649-8.52,6.187-10.883,11.125c-1.264,2.64-1.962,5.405-1.561,8.356c0.265,1.945,0.936,3.721,2.434,5.079
		c1.035,0.938,2.236,1.333,3.644,1.08c1.479-0.266,2.672-1.026,3.71-2.059c2.165-2.152,3.557-4.797,4.715-7.57
		c1.952-4.676,2.994-9.591,3.675-14.588C280.697,260.789,280.935,259.523,280.775,258.271z M241.847,190.381
		c0.111-0.022,0.235-0.021,0.337-0.07c4.938-2.347,9.287-5.463,12.634-9.841c2.236-2.926,3.937-6.113,4.278-9.865
		c0.236-2.592-0.179-5.064-1.924-7.084c-1.762-2.038-3.439-2.06-5.229-0.661c-0.475,0.372-0.902,0.783-1.295,1.237
		c-0.998,1.157-1.792,2.453-2.434,3.827c-1.503,3.22-2.74,6.534-3.7,9.969c-1.064,3.81-1.901,7.661-2.642,11.54
		C241.816,189.734,241.665,190.048,241.847,190.381z M137.131,227.502c-0.123-2.437-0.419-4.851-0.982-7.226
		c-0.639-2.695-1.493-5.304-3.232-7.53c-0.494-0.632-1.025-1.227-1.748-1.61c-0.912-0.483-1.451-0.347-2.016,0.537
		c-0.39,0.61-0.643,1.281-0.797,1.99c-0.591,2.72-0.343,5.401,0.444,8.037c0.659,2.203,1.684,4.223,3.313,5.891
		c1.156,1.183,2.541,1.905,4.194,2.1c0.897,0.105,0.936,0.079,0.9-0.873C137.192,228.378,137.158,227.94,137.131,227.502z"/>
	<path d="M164.382,148.848c-0.677,0.335-0.985,0.752-1.32,1.129c-2.344,2.644-3.867,5.763-5.162,9.005
		c-1.871,4.686-3.076,9.584-4.555,14.396c-0.775,2.521-1.467,5.067-2.467,7.516c-0.44,1.078-1.022,2.079-1.58,3.094
		c-0.153,0.278-0.35,0.536-0.55,0.785c-1.218,1.517-2.911,1.537-4.177,0.035c-1.215-1.442-1.841-3.161-2.257-4.972
		c-0.745-3.245-1.032-6.548-1.149-9.861c-0.146-4.118-0.048-8.233,0.448-12.331c0.144-1.187,0.301-2.373,0.476-3.556
		c0.058-0.393,0.167-0.782,0.299-1.158c0.333-0.954,0.853-1.738,1.976-1.837c0.912-0.081,1.634,0.469,2.16,1.596
		c0.376,0.805,0.54,1.665,0.706,2.532c0.447,2.333,0.428,4.69,0.406,7.047c-0.028,2.958-0.252,5.907-0.453,8.858
		c-0.244,3.588-0.464,7.18-0.125,10.775c0.018,0.192-0.002,0.396,0.218,0.584c0.434-0.156,0.592-0.578,0.8-0.947
		c1.207-2.14,1.944-4.465,2.683-6.788c1.515-4.76,2.994-9.531,4.527-14.285c1.27-3.937,3.005-7.662,5.303-11.11
		c0.821-1.231,1.707-2.407,2.854-3.373c1.627-1.369,4.349-1.317,5.48,1.679c0.465,1.231,0.574,2.567,0.394,3.9
		c-0.328,2.426-0.989,4.767-1.791,7.072c-0.117,0.336-0.306,0.651-0.268,1.166c2.75,0.08,5.019,1.278,6.825,3.301
		c0.454-0.001,0.558-0.349,0.736-0.592c2.438-3.326,5.014-6.536,8.034-9.36c1.549-1.448,3.148-2.844,5.076-3.789
		c0.899-0.441,1.813-0.828,2.833-0.914c2.883-0.244,5.147,1.671,5.367,4.565c0.125,1.658-0.134,3.265-0.65,4.838
		c-0.471,1.435-1.04,2.831-1.77,4.281c2.877,0.767,4.875,2.651,6.778,4.709c0.535-0.324,0.784-0.85,1.192-1.214
		c0.419-0.374,0.503-0.647-0.029-1.119c-0.659-0.585-0.381-1.52,0.471-1.796c0.563-0.183,1.174-0.26,1.769-0.293
		c0.511-0.029,0.895-0.175,1.258-0.553c3.931-4.099,7.877-8.182,11.064-12.918c0.513-0.762,1.119-1.462,1.616-2.233
		c1.451-2.251,3.789-1.445,4.775,0.209c0.449,0.753,0.813,1.553,1.037,2.416c0.648,2.49,0.904,5.033,0.889,7.591
		c-0.02,3.072-0.168,6.147-0.214,9.218c-0.06,3.951-0.259,7.902-0.154,11.857c0.067,2.515-0.169,5.033,0.007,7.549
		c0.082,1.156,0.181,2.312,0.285,3.466c0.028,0.309,0.057,0.632,0.321,0.91c0.597-0.222,0.971-0.688,1.352-1.145
		c1.028-1.231,1.901-2.569,2.705-3.954c0.12-0.207,0.216-0.432,0.357-0.622c0.259-0.348,0.604-0.549,1.04-0.366
		c0.487,0.204,0.612,0.625,0.476,1.094c-0.157,0.535-0.336,1.07-0.573,1.573c-0.912,1.924-2.17,3.632-3.43,5.334
		c-0.164,0.223-0.387,0.403-0.592,0.595c-1.324,1.235-2.751,1.355-4.241,0.333c-0.906-0.622-1.566-1.476-2.141-2.399
		c-0.83-1.336-1.384-2.797-1.802-4.299c-1.174-4.219-1.79-8.49-1.577-12.905c0.1-2.061,0.142-4.144,0.129-6.218
		c-0.002-0.428-0.08-0.692-0.561-0.717c-3.396-0.169-6.751-0.752-10.141-0.996c-0.74-0.054-1.29,0.094-1.756,0.731
		c-0.517,0.706-1.136,1.343-1.751,1.97c-0.405,0.413-0.447,0.782-0.138,1.267c1.201,1.884,1.686,3.984,1.563,6.179
		c-0.217,3.86-1.178,7.497-3.722,10.549c-1.562,1.873-3.454,3.312-5.738,4.204c-0.835,0.327-1.708,0.403-2.596,0.342
		c-1.66-0.115-2.852-1.153-3.132-2.797c-0.162-0.948-0.15-1.906,0.058-2.86c0.484-2.218,1.445-4.228,2.631-6.14
		c1.669-2.691,3.637-5.161,5.679-7.573c0.258-0.306,0.509-0.617,0.778-0.913c0.238-0.262,0.315-0.499,0.12-0.849
		c-0.75-1.342-1.658-2.559-2.9-3.469c-0.943-0.691-1.992-0.936-3.167-0.501c-2.026,0.75-3.739-0.623-3.436-2.754
		c0.23-1.619,0.563-3.219,1.096-4.776c0.452-1.321,0.866-2.658,1.129-4.036c0.32-1.682-0.189-2.13-1.848-1.584
		c-1.117,0.367-2.078,1.026-3,1.729c-3.819,2.905-6.957,6.468-9.842,10.273c-0.34,0.449-0.339,0.795-0.085,1.291
		c2.272,4.43,2.453,9.021,0.987,13.727c-0.657,2.109-1.455,4.152-2.905,5.863c-1.174,1.386-2.502,2.573-4.246,3.229
		c-2.107,0.792-4.061-0.02-4.922-2.089c-0.558-1.339-0.571-2.729-0.337-4.129c0.346-2.072,1.163-3.986,2.063-5.862
		c1.438-2.993,3.016-5.914,4.919-8.638c0.502-0.719,0.48-1.286,0.01-1.94c-0.608-0.848-1.237-1.677-2.133-2.248
		c-1.193-0.759-2.521-0.771-3.581,0.091c-0.868,0.706-1.751,1.018-2.736,0.397c-0.971-0.612-1.294-1.59-1.197-2.703
		c0.146-1.679,0.554-3.308,1.003-4.925c0.61-2.193,1.278-4.372,1.634-6.628C164.312,149.469,164.33,149.273,164.382,148.848z
		 M172.605,169.198c-0.342,0.146-0.42,0.335-0.527,0.499c-1.794,2.751-3.319,5.649-4.694,8.627
		c-0.451,0.976-0.812,2.006-0.968,3.079c-0.167,1.149-0.285,2.312,0.16,3.433c0.43,1.082,1.004,1.255,1.933,0.551
		c0.673-0.51,1.214-1.157,1.643-1.891c1.776-3.038,2.486-6.381,2.721-9.838C172.971,172.199,173.044,170.716,172.605,169.198z
		 M207.455,162.275c1.09,0.368,2.056,0.323,2.994,0.453c1.858,0.257,3.722,0.475,5.579,0.742c0.496,0.071,0.64-0.086,0.644-0.558
		c0.006-0.797,0.065-1.594,0.092-2.391c0.094-2.711,0.181-5.423,0.59-8.112c0.037-0.242,0.156-0.552-0.224-0.801
		C213.614,154.856,210.917,158.84,207.455,162.275z M198.663,172.125c-2.755,3.17-5.367,6.117-6.987,9.779
		c-0.538,1.216-0.87,2.48-0.855,3.82c0.014,1.298,0.357,1.492,1.501,0.815c1.146-0.678,2.091-1.587,2.917-2.623
		c1.862-2.337,2.832-5.059,3.349-7.954C198.795,174.802,198.96,173.614,198.663,172.125z"/>
	<path d="M114.136,152.813c-2.585,0.691-4.901,1.667-7.05,2.988c-0.807,0.496-1.486,0.479-1.825,0.036
		c-0.372-0.486-0.25-1.125,0.403-1.813c1.292-1.361,2.92-2.22,4.611-2.956c3.054-1.329,6.215-2.34,9.529-2.73
		c3.955-0.466,7.835-0.219,11.433,1.73c2.665,1.444,4.736,3.471,6.173,6.177c2.938,5.534,1.325,12.092-2.705,16.263
		c-2.791,2.888-6.205,4.73-10.019,5.875c-0.729,0.219-1.496,0.246-2.251,0.323c-0.984,0.101-0.987,0.118-0.969,1.088
		c0.032,1.717,0.094,3.434,0.096,5.15c0.001,0.877-0.07,1.758-0.17,2.629c-0.049,0.43-0.189,0.865-0.371,1.26
		c-0.655,1.422-2.409,1.57-3.29,0.273c-0.666-0.98-0.887-2.136-1.12-3.267c-0.643-3.133-1.033-6.307-1.425-9.479
		c-0.388-3.131-0.779-6.265-1.041-9.407c-0.299-3.583-0.524-7.173-0.351-10.779C113.847,155.1,113.999,154.043,114.136,152.813z
		 M117.924,151.927c0.771,1.78,1.122,3.58,1.414,5.379c0.826,5.084,1.313,10.208,1.672,15.345c0.066,0.939,0.187,1.874,0.292,2.902
		c1.041-0.416,1.992-0.802,2.947-1.18c2.738-1.084,5.253-2.496,7.252-4.727c3.975-4.435,3.783-11.208-1.322-15.271
		C126.599,151.526,122.417,151.153,117.924,151.927z"/>
	<path d="M145.776,144.013c-0.018,1.557-1.288,2.896-2.755,2.902c-1.441,0.008-2.594-1.223-2.563-2.734
		c0.034-1.646,1.325-3.011,2.815-2.974C144.69,141.243,145.794,142.48,145.776,144.013z"/>
	<path d="M199.75,204.536c-0.024,1.632-1.017,2.755-2.388,2.699c-1.224-0.05-2.49-1.488-2.462-2.799
		c0.028-1.332,1.163-2.431,2.481-2.4C198.713,202.066,199.77,203.181,199.75,204.536z"/>
	<g>
		<path d="M308.884,135.668c2.218,1.244,4.063,2.96,5.853,4.729c4.352,4.305,7.857,9.227,10.752,14.619
			c1.818,3.386,3.466,6.839,4.808,10.436c1.945,5.217,3.34,10.59,4.534,16.02c1.107,5.038,1.902,10.129,2.632,15.232
			c0.13,0.908,0.284,1.813,0.382,2.726c0.229,2.144-0.663,3.301-2.805,3.483c-5.017,0.429-10.045,0.672-15.082,0.709
			c-4.874,0.035-9.748,0.09-14.621,0.164c-3.875,0.059-7.752,0.085-11.622,0.264c-5.107,0.235-10.217,0.487-15.304,1.049
			c-3.653,0.402-7.326,0.637-10.958,1.219c-1.775,0.284-3.545,0.615-5.305,0.984c-0.833,0.175-1.67,0.165-2.503,0.2
			c-1.16,0.05-1.931-0.871-1.786-2.042c0.106-0.853,0.493-1.6,0.966-2.302c1.563-2.321,3.099-4.662,4.707-6.951
			c3.446-4.908,6.708-9.938,9.958-14.976c2.882-4.465,5.786-8.916,8.616-13.414c2.789-4.431,5.474-8.927,8.247-13.367
			c3.495-5.596,6.631-11.403,10.093-17.018c0.423-0.685,0.961-1.273,1.505-1.861c1.13-1.221,2.524-1.465,4.063-1.103
			C307.03,134.706,307.982,135.134,308.884,135.668z M315.125,181.343c-3.039-12.182-8.618-22.956-16.732-32.436
			c-0.357,0.183-0.443,0.55-0.611,0.853c-1.357,2.446-2.683,4.91-4.07,7.34c-1.287,2.255-2.656,4.464-3.959,6.711
			c-0.77,1.328-0.793,1.048,0.381,1.774c1.025,0.635,1.949,1.402,2.715,2.337c2.813,3.437,3.53,7.365,2.537,11.61
			c-1.255,5.36-6.445,9.173-11.907,8.815c-2.279-0.149-4.386-0.813-6.193-2.29c-0.785-0.642-0.807-0.602-1.339,0.214
			c-1.2,1.841-2.408,3.678-3.614,5.515c-0.671,1.022-0.669,1.011,0.53,1.422c3.607,1.238,6.59,3.244,8.228,6.842
			c0.242,0.533,0.574,0.53,1.052,0.487c5.97-0.535,11.956-0.764,17.944-0.976c0.663-0.022,1.338,0.033,1.981-0.173
			C300.794,189.744,307.961,181.97,315.125,181.343z M310.944,142.053c-0.758,0.732-1.204,1.54-1.734,2.285
			c-0.462,0.65-0.902,1.324-1.43,1.919c-0.448,0.505-1.121,0.536-1.506,0.192c-0.374-0.334-0.334-0.708,0.116-1.367
			c0.927-1.354,1.727-2.783,2.539-4.207c0.247-0.434,0.188-0.692-0.187-1.007c-0.857-0.72-1.696-1.461-2.706-1.97
			c-1.31-0.659-1.679-0.558-2.415,0.697c-1.235,2.105-2.224,4.34-3.367,6.494c-0.269,0.507-0.179,0.876,0.188,1.278
			c1.103,1.211,2.18,2.445,3.275,3.663c4.611,5.122,8.235,10.884,11.069,17.15c1.848,4.087,3.296,8.318,4.463,12.646
			c1.415,5.25,2.638,10.543,3.403,15.93c0.145,1.018,0.34,2.059-0.223,3.178c3.578-0.017,7.023-0.299,10.535-0.415
			c-0.092-1.441-0.424-2.722-0.577-4.024c-0.07-0.594-0.348-0.693-0.875-0.655c-1.725,0.125-3.399,0.485-5.051,0.978
			c-0.381,0.114-0.759,0.255-1.171,0.219c-0.359-0.031-0.588-0.236-0.718-0.551c-0.136-0.329-0.068-0.65,0.188-0.88
			c0.205-0.183,0.454-0.334,0.709-0.435c0.966-0.382,1.938-0.75,2.916-1.1c1.115-0.398,2.289-0.57,3.48-0.793
			c-0.337-2.193-0.64-4.31-1.104-6.385c-1.869,0.332-3.676,0.486-5.257,1.468c-0.369,0.229-0.785,0.207-1.071-0.183
			c-0.308-0.421-0.242-0.839,0.139-1.178c0.539-0.479,1.113-0.902,1.776-1.21c1.229-0.569,2.526-0.916,3.907-1.205
			c-0.395-1.741-0.721-3.426-1.165-5.078c-0.482-1.792-0.094-1.736-1.979-1.086c-1.434,0.495-2.809,1.156-4.229,1.688
			c-0.965,0.361-1.544,0.188-1.763-0.396c-0.201-0.537,0.057-0.942,0.97-1.409c1.743-0.892,3.493-1.771,5.25-2.636
			c0.398-0.196,0.651-0.355,0.493-0.893c-0.521-1.765-1.164-3.485-1.782-5.215c-0.249-0.697-0.308-0.691-1.067-0.383
			c-0.965,0.394-1.869,0.905-2.769,1.428c-0.691,0.4-1.392,0.795-2.205,0.902c-0.533,0.07-0.968-0.078-1.139-0.632
			c-0.151-0.492,0.063-0.854,0.505-1.09c0.106-0.056,0.222-0.098,0.32-0.165c1.648-1.119,3.358-2.14,5.107-3.149
			c-0.809-2.476-2.05-4.714-3.129-7.024c-0.219-0.469-0.462-0.513-0.93-0.255c-1.541,0.852-3.038,1.771-4.536,2.693
			c-0.513,0.315-1.028,0.626-1.664,0.609c-0.4-0.011-0.695-0.182-0.82-0.573c-0.125-0.391-0.004-0.708,0.339-0.933
			c0.134-0.087,0.286-0.146,0.416-0.237c1.873-1.336,3.743-2.675,5.656-4.042c-1.062-1.81-1.977-3.649-3.219-5.336
			c-0.996,0.739-1.77,1.488-2.544,2.234c-0.69,0.666-1.371,1.343-2.074,1.995c-0.356,0.33-0.782,0.421-1.194,0.097
			c-0.36-0.283-0.396-0.673-0.249-1.087c0.136-0.382,0.358-0.714,0.616-1.022c1.126-1.348,2.248-2.7,3.389-4.037
			c0.263-0.308,0.397-0.535,0.086-0.919C313.69,145.091,312.441,143.539,310.944,142.053z M280.135,184.305
			c5.442,3.104,10.333-0.74,11.773-4.338c1.39-3.472,0.011-8.792-2.907-11.177c-1.481-1.211-1.52-1.252-2.524,0.366
			c-2.465,3.969-4.918,7.946-7.341,11.942C277.947,183.061,277.983,183.083,280.135,184.305z M318.935,198.948
			c-0.945-4.84-1.76-9.581-2.961-14.268c-0.843,0.186-1.499,0.464-2.147,0.772c-2.893,1.375-4.846,3.707-6.524,6.336
			c-1.304,2.043-1.752,4.259-1.457,6.646c0.104,0.848,0.103,0.862,0.915,0.848c1.478-0.025,2.954-0.067,4.431-0.109
			C313.777,199.101,316.364,199.023,318.935,198.948z M264.374,202.808c4.59-0.889,9.004-1.247,13.45-1.867
			c-0.385-0.94-0.967-1.581-1.61-2.178c-1.514-1.406-3.26-2.426-5.182-3.171c-1.038-0.401-1.059-0.453-1.723,0.48
			c-1.111,1.563-2.232,3.117-3.426,4.621C265.393,201.312,264.857,201.9,264.374,202.808z"/>
		<path d="M300.849,177.737c0.019-0.035,0.034-0.073,0.058-0.104c0.891-1.164,1.213-2.393,0.833-3.887
			c-0.299-1.178,0.006-2.386,0.626-3.467c1.083-1.883,3.51-2.434,5.304-1.208c2.47,1.688,3.515,5.249,2.349,7.997
			c-0.393,0.923-1.07,1.518-2.072,1.592c-0.794,0.059-1.198,0.478-1.525,1.137c-0.425,0.856-0.878,1.707-1.396,2.51
			c-0.842,1.303-1.541,1.49-2.93,0.859c-0.508-0.23-1.004-0.494-1.481-0.783c-1.123-0.683-1.342-1.308-0.839-2.504
			c0.31-0.735,0.693-1.439,1.044-2.157C300.829,177.727,300.838,177.732,300.849,177.737z M303.252,178.586
			c-0.17,0.311-0.428,0.76-0.662,1.222c-0.103,0.204-0.232,0.45,0.088,0.602c0.244,0.116,0.36-0.069,0.467-0.234
			c0.323-0.503,0.666-0.996,0.952-1.52c0.678-1.237,1.505-2.264,3.04-2.421c0.359-0.037,0.564-0.262,0.623-0.622
			c0.284-1.743,0.089-3.351-1.341-4.586c-0.426-0.368-0.89-0.704-1.513-0.446c-0.577,0.238-0.82,0.692-0.916,1.293
			c-0.166,1.046-0.086,2.082,0.192,3.081c0.221,0.792,0.116,1.489-0.231,2.192C303.741,177.575,303.534,178.007,303.252,178.586z"/>
		<path d="M292.611,190.445c0.117,0.051,0.313,0.107,0.477,0.213c0.585,0.376,0.815,0.92,0.541,1.533
			c-0.29,0.649-0.689,1.265-1.271,1.694c-0.882,0.653-2.259,0.488-2.937-0.301c-0.693-0.806-0.705-2.302-0.024-3.095
			c0.759-0.884,1.869-1.012,2.888-0.326C292.383,190.229,292.465,190.318,292.611,190.445z"/>
		<path d="M296.228,160.222c-0.948-0.548-1.298-1.674-0.796-2.559c0.598-1.053,2.129-1.504,3.115-0.918
			c0.921,0.547,1.237,1.757,0.71,2.715C298.707,160.46,297.266,160.822,296.228,160.222z"/>
	</g>
</g>
</svg>
