<svg id="Layer_1" data-name="Layer 1" xmlns="http://www.w3.org/2000/svg" viewBox="0 0 881.95 226.75"><defs><style>.cls-1{fill:none;stroke:#231f20;stroke-miterlimit:10;}</style></defs><title>snumatosvg</title><path class="cls-1" d="M-49.44,393.56c-1.3-23.51-20.59-41.83-43-42-24.64-.2-43.61,21.59-43,38,.3,8.12,5.38,14.22,45,46,33.79,27.1,41.12,31.51,41,40-.24,16.75-29.35,35.91-55,32-22.84-3.49-41.36-25-38-31,3.15-5.61,28-2,127,41-11.73-86.57-17.56-152.88-8-155,15.07-3.35,55.88,155.64,75,152,8.78-1.68-39.43-130,3-161,9.23-6.76,24.74-10.41,34-4,29.91,20.7-35.75,125.52,0,159,15,14,46.12,14,61,0,36.48-34.35-27.34-150.55-9-160,11.71-6,37.35,41.51,67,36,26.4-4.91,33.92-47.76,43-46,17.74,3.43-3.3,168.65,9,171,12.58,2.39,35.05-170.49,79-173,42.55-2.44,98.58,155.25,73,172-27.22,17.82-140.35-107.09-137-111,3.78-4.42,148.65,154.79,208,121,40.14-22.86,39.63-133.17-7-168-30.27-22.62-73.52-8.62-73.73-11-.36-4.25,137.32-43.95,170.73,4,30.78,44.17-55.14,122.26-24,170,23.21,35.58,108.88,50.3,159-1,43.44-44.47,37.32-115.11,2-154-3.89-4.29-42.89-45.81-94-32-46,12.42-62.47,66.46-67,81a140.76,140.76,0,0,0-6,32" transform="translate(143.34 -319.59)"/></svg>